<svg width="22" height="25" viewBox="0 0 22 25" fill="none" xmlns="http://www.w3.org/2000/svg">
<path d="M9.625 0C9.75516 0 9.88625 0.011697 10.0182 0.0350908C10.1502 0.0584846 10.2786 0.0959145 10.4032 0.147381L17.8062 2.95463C18.2316 3.12868 18.5785 3.40801 18.8471 3.7926C19.1157 4.17813 19.25 4.61138 19.25 5.09236V10.5862C19.25 10.7845 19.184 10.9511 19.052 11.0858C18.92 11.2206 18.7564 11.288 18.5611 11.288C18.3659 11.288 18.2027 11.2206 18.0716 11.0858C17.9405 10.9511 17.875 10.7845 17.875 10.5862V5.07411C17.875 4.89351 17.8264 4.73163 17.7292 4.58846C17.633 4.44435 17.4964 4.33627 17.3195 4.26422L9.9165 1.45697C9.8285 1.42047 9.73133 1.40222 9.625 1.40222C9.51866 1.40222 9.4215 1.42047 9.3335 1.45697L1.9305 4.26422C1.75358 4.33627 1.617 4.44388 1.52075 4.58705C1.42358 4.73303 1.375 4.89585 1.375 5.07551V11.1041C1.375 12.4534 1.5675 13.7626 1.9525 15.0314C2.3375 16.3003 2.871 17.4653 3.553 18.5265C4.235 19.5876 5.03342 20.5173 5.94825 21.3155C6.86308 22.1137 7.84896 22.7359 8.90587 23.1823C9.09104 23.2628 9.22716 23.3928 9.31425 23.5725C9.40133 23.7522 9.41279 23.9346 9.34862 24.1199C9.27346 24.3183 9.14237 24.4516 8.95537 24.52C8.76746 24.5883 8.58962 24.5827 8.42187 24.5031C5.84971 23.3914 3.80325 21.5901 2.2825 19.0991C0.760833 16.6091 0 13.9441 0 11.1041V5.09236C0 4.61138 0.134292 4.17813 0.402875 3.7926C0.670542 3.40707 1.0175 3.12775 1.44375 2.95463L8.84812 0.147381C8.97737 0.0884285 9.10662 0.0486594 9.23587 0.0280728C9.36604 0.00935782 9.49575 0 9.625 0ZM16.5 25C14.9682 25 13.6689 24.4554 12.6019 23.3662C11.534 22.2751 11 20.9482 11 19.3855C11 17.8228 11.534 16.4964 12.6019 15.4062C13.6698 14.3161 14.9692 13.771 16.5 13.771C18.0308 13.771 19.3307 14.3161 20.3995 15.4062C21.4683 16.4964 22.0018 17.8228 22 19.3855C21.9982 20.9482 21.4647 22.2751 20.3995 23.3662C19.3343 24.4573 18.0345 25.0019 16.5 25ZM16.5 19.3855C17.0729 19.3855 17.5601 19.181 17.9616 18.7721C18.3631 18.3632 18.5634 17.8658 18.5625 17.2801C18.5616 16.6943 18.3613 16.1974 17.9616 15.7894C17.562 15.3814 17.0747 15.1765 16.5 15.1746C15.9252 15.1727 15.4385 15.3777 15.0397 15.7894C14.641 16.2011 14.4402 16.698 14.4375 17.2801C14.4347 17.8621 14.6355 18.3594 15.0397 18.7721C15.444 19.1848 15.9307 19.3892 16.5 19.3855ZM16.5 23.5964C17.0903 23.5964 17.6555 23.4808 18.1954 23.2497C18.7344 23.0185 19.1987 22.6742 19.5882 22.2166C19.6854 22.095 19.718 21.964 19.6859 21.8236C19.6547 21.6851 19.574 21.5775 19.4439 21.5008C18.9901 21.2547 18.5135 21.0745 18.0139 20.9604C17.5134 20.8462 17.0069 20.7891 16.4945 20.7891C15.9812 20.7891 15.477 20.8462 14.982 20.9604C14.4852 21.0745 14.0103 21.2551 13.5575 21.5022C13.4264 21.577 13.3453 21.6846 13.3141 21.825C13.282 21.9644 13.3141 22.0954 13.4104 22.218C13.8009 22.6747 14.2656 23.0185 14.8046 23.2497C15.3436 23.4808 15.9087 23.5964 16.5 23.5964Z" fill="#8A8A94"/>
</svg>
