<svg width="22" height="22" viewBox="0 0 22 22" fill="none" xmlns="http://www.w3.org/2000/svg">
<path d="M5.75 15.75V9.5M10.75 15.75V5.75M15.75 15.75V13.25M18.25 0.75H3.25C2.58696 0.75 1.95107 1.01339 1.48223 1.48223C1.01339 1.95107 0.75 2.58696 0.75 3.25V18.25C0.75 18.913 1.01339 19.5489 1.48223 20.0178C1.95107 20.4866 2.58696 20.75 3.25 20.75H18.25C18.913 20.75 19.5489 20.4866 20.0178 20.0178C20.4866 19.5489 20.75 18.913 20.75 18.25V3.25C20.75 2.58696 20.4866 1.95107 20.0178 1.48223C19.5489 1.01339 18.913 0.75 18.25 0.75Z" stroke="#8A8A94" stroke-width="1.5" stroke-linecap="round" stroke-linejoin="round"/>
</svg>
