<svg width="22" height="26" viewBox="0 0 22 26" fill="none" xmlns="http://www.w3.org/2000/svg">
<path d="M17.2018 11.375C17.6506 11.5104 18.0779 11.6942 18.4837 11.9263C18.8895 12.1585 19.3145 12.5115 19.7585 12.9855C20.2025 13.4594 20.582 14.018 20.8971 14.6613C21.2122 15.3045 21.4748 16.1363 21.6849 17.1568C21.895 18.1773 22 19.3211 22 20.5882C22 22.0778 21.5226 23.3521 20.5677 24.4113C19.6128 25.4704 18.4622 26 17.1159 26H4.88411C3.53776 26 2.38715 25.4704 1.43229 24.4113C0.477431 23.3521 0 22.0778 0 20.5882C0 19.3211 0.105035 18.1773 0.315104 17.1568C0.525174 16.1363 0.78776 15.3045 1.10286 14.6613C1.41797 14.018 1.79753 13.4594 2.24154 12.9855C2.68555 12.5115 3.11046 12.1585 3.51628 11.9263C3.92209 11.6942 4.34939 11.5104 4.79818 11.375C4.04384 10.1659 3.66667 8.85045 3.66667 7.42857C3.66667 6.42262 3.86003 5.46261 4.24675 4.54855C4.63346 3.63449 5.15625 2.84375 5.8151 2.17634C6.47396 1.50893 7.25456 0.979353 8.1569 0.587612C9.05925 0.195871 10.0069 0 11 0C11.9931 0 12.9408 0.195871 13.8431 0.587612C14.7454 0.979353 15.526 1.50893 16.1849 2.17634C16.8438 2.84375 17.3665 3.63449 17.7533 4.54855C18.14 5.46261 18.3333 6.42262 18.3333 7.42857C18.3333 8.85045 17.9562 10.1659 17.2018 11.375ZM11 1.85714C9.48177 1.85714 8.18555 2.40123 7.11133 3.4894C6.03711 4.57757 5.5 5.89062 5.5 7.42857C5.5 8.96652 6.03711 10.2796 7.11133 11.3677C8.18555 12.4559 9.48177 13 11 13C12.5182 13 13.8145 12.4559 14.8887 11.3677C15.9629 10.2796 16.5 8.96652 16.5 7.42857C16.5 5.89062 15.9629 4.57757 14.8887 3.4894C13.8145 2.40123 12.5182 1.85714 11 1.85714ZM17.1159 24.1429C17.9562 24.1429 18.6747 23.7971 19.2715 23.1055C19.8683 22.4139 20.1667 21.5748 20.1667 20.5882C20.1667 18.2764 19.7919 16.4531 19.0423 15.1183C18.2928 13.7835 17.2161 13.0822 15.8125 13.0145C14.428 14.2429 12.8238 14.8571 11 14.8571C9.17622 14.8571 7.57205 14.2429 6.1875 13.0145C4.78385 13.0822 3.70725 13.7835 2.95768 15.1183C2.20812 16.4531 1.83333 18.2764 1.83333 20.5882C1.83333 21.5748 2.13173 22.4139 2.72852 23.1055C3.3253 23.7971 4.04384 24.1429 4.88411 24.1429H17.1159Z" fill="#8A8A94"/>
</svg>
