<svg width="23" height="23" viewBox="0 0 23 23" fill="none" xmlns="http://www.w3.org/2000/svg">
<mask id="path-1-inside-1_685_17" fill="white">
<path d="M3.34267 23C2.77022 23 2.28296 22.799 1.88089 22.3969C1.47881 21.9948 1.27778 21.508 1.27778 20.9364V6.72494C0.911481 6.57331 0.606945 6.32756 0.364167 5.98767C0.121389 5.64693 0 5.25635 0 4.81594V2.06361C0 1.49287 0.201037 1.00604 0.603111 0.603111C1.00519 0.201037 1.49244 0 2.06489 0H20.9364C21.5071 0 21.994 0.201037 22.3969 0.603111C22.799 1.00519 23 1.49244 23 2.06489V4.81594C23 5.25635 22.8786 5.6465 22.6358 5.98639C22.3939 6.32713 22.0894 6.57331 21.7222 6.72494V20.9364C21.7222 21.5071 21.5212 21.994 21.1191 22.3969C20.717 22.799 20.2302 23 19.6586 23H3.34267ZM2.55556 6.88083V20.8137C2.55556 21.0752 2.64969 21.292 2.83794 21.4641C3.0262 21.6362 3.26004 21.7222 3.53944 21.7222H19.6599C19.889 21.7222 20.0773 21.6485 20.2247 21.5012C20.372 21.3538 20.4457 21.1655 20.4457 20.9364V6.88083H2.55556ZM2.06361 5.60306H20.9364C21.1655 5.60306 21.3538 5.52937 21.5012 5.382C21.6485 5.23463 21.7222 5.04594 21.7222 4.81594V2.06489C21.7222 1.83489 21.6485 1.6462 21.5012 1.49883C21.3538 1.35146 21.1651 1.27778 20.9351 1.27778H2.06489C1.83489 1.27778 1.6462 1.35146 1.49883 1.49883C1.35146 1.6462 1.27778 1.83489 1.27778 2.06489V4.81594C1.27778 5.04594 1.35146 5.2342 1.49883 5.38072C1.6462 5.52809 1.83489 5.60178 2.06489 5.60178M8.15861 12.6066H14.8414V11.5H8.15861V12.6066Z"/>
</mask>
<path d="M3.34267 23C2.77022 23 2.28296 22.799 1.88089 22.3969C1.47881 21.9948 1.27778 21.508 1.27778 20.9364V6.72494C0.911481 6.57331 0.606945 6.32756 0.364167 5.98767C0.121389 5.64693 0 5.25635 0 4.81594V2.06361C0 1.49287 0.201037 1.00604 0.603111 0.603111C1.00519 0.201037 1.49244 0 2.06489 0H20.9364C21.5071 0 21.994 0.201037 22.3969 0.603111C22.799 1.00519 23 1.49244 23 2.06489V4.81594C23 5.25635 22.8786 5.6465 22.6358 5.98639C22.3939 6.32713 22.0894 6.57331 21.7222 6.72494V20.9364C21.7222 21.5071 21.5212 21.994 21.1191 22.3969C20.717 22.799 20.2302 23 19.6586 23H3.34267ZM2.55556 6.88083V20.8137C2.55556 21.0752 2.64969 21.292 2.83794 21.4641C3.0262 21.6362 3.26004 21.7222 3.53944 21.7222H19.6599C19.889 21.7222 20.0773 21.6485 20.2247 21.5012C20.372 21.3538 20.4457 21.1655 20.4457 20.9364V6.88083H2.55556ZM2.06361 5.60306H20.9364C21.1655 5.60306 21.3538 5.52937 21.5012 5.382C21.6485 5.23463 21.7222 5.04594 21.7222 4.81594V2.06489C21.7222 1.83489 21.6485 1.6462 21.5012 1.49883C21.3538 1.35146 21.1651 1.27778 20.9351 1.27778H2.06489C1.83489 1.27778 1.6462 1.35146 1.49883 1.49883C1.35146 1.6462 1.27778 1.83489 1.27778 2.06489V4.81594C1.27778 5.04594 1.35146 5.2342 1.49883 5.38072C1.6462 5.52809 1.83489 5.60178 2.06489 5.60178M8.15861 12.6066H14.8414V11.5H8.15861V12.6066Z" fill="#8A8A94"/>
<path d="M1.27778 20.9364H2.27778H1.27778ZM1.27778 6.72494H2.27778V6.0566L1.66026 5.80098L1.27778 6.72494ZM0.364167 5.98767L-0.450255 6.56794L-0.449567 6.5689L0.364167 5.98767ZM0.603111 0.603111L-0.103996 -0.103996L-0.104744 -0.103247L0.603111 0.603111ZM22.3969 0.603111L23.104 -0.103996L23.1032 -0.104744L22.3969 0.603111ZM22.6358 5.98639L21.8221 5.40515L21.8204 5.40747L22.6358 5.98639ZM21.7222 6.72494L21.3405 5.80067L20.7222 6.05601V6.72494H21.7222ZM21.1191 22.3969L21.8262 23.104L21.827 23.1032L21.1191 22.3969ZM2.55556 6.88083V5.88083H1.55556V6.88083H2.55556ZM3.53944 21.7222V20.7222V21.7222ZM20.4457 20.9364H19.4457H20.4457ZM20.4457 6.88083H21.4457V5.88083H20.4457V6.88083ZM1.49883 5.38072L2.20594 4.67361L2.20389 4.67157L1.49883 5.38072ZM8.15861 12.6066H7.15861V13.6066H8.15861V12.6066ZM14.8414 12.6066V13.6066H15.8414V12.6066H14.8414ZM14.8414 11.5H15.8414V10.5H14.8414V11.5ZM8.15861 11.5V10.5H7.15861V11.5H8.15861ZM3.34267 23V22C3.03343 22 2.80112 21.9029 2.588 21.6898L1.88089 22.3969L1.17378 23.104C1.76481 23.695 2.50701 24 3.34267 24V23ZM1.88089 22.3969L2.588 21.6898C2.37456 21.4763 2.27778 21.2443 2.27778 20.9364H1.27778H0.277778C0.277778 21.7716 0.583071 22.5133 1.17378 23.104L1.88089 22.3969ZM1.27778 20.9364H2.27778V6.72494H1.27778H0.277778V20.9364H1.27778ZM1.27778 6.72494L1.66026 5.80098C1.47642 5.72488 1.31795 5.6025 1.1779 5.40643L0.364167 5.98767L-0.449567 6.5689C-0.104065 7.05261 0.346542 7.42175 0.895299 7.64891L1.27778 6.72494ZM0.364167 5.98767L1.17859 5.40739C1.06309 5.2453 1 5.05996 1 4.81594H0H-1C-1 5.45274 -0.820316 6.04856 -0.450254 6.56794L0.364167 5.98767ZM0 4.81594H1V2.06361H0H-1V4.81594H0ZM0 2.06361H1C1 1.75692 1.09653 1.52436 1.31097 1.30947L0.603111 0.603111L-0.104744 -0.103247C-0.694458 0.487717 -1 1.22882 -1 2.06361H0ZM0.603111 0.603111L1.31022 1.31022C1.52334 1.0971 1.75565 1 2.06489 1V0V-1C1.22924 -1 0.48703 -0.695021 -0.103996 -0.103996L0.603111 0.603111ZM2.06489 0V1H20.9364V0V-1H2.06489V0ZM20.9364 0V1C21.2431 1 21.4756 1.09653 21.6905 1.31097L22.3969 0.603111L23.1032 -0.104744C22.5123 -0.694458 21.7712 -1 20.9364 -1V0ZM22.3969 0.603111L21.6898 1.31022C21.9029 1.52334 22 1.75565 22 2.06489H23H24C24 1.22924 23.695 0.48703 23.104 -0.103996L22.3969 0.603111ZM23 2.06489H22V4.81594H23H24V2.06489H23ZM23 4.81594H22C22 5.05996 21.9369 5.2444 21.8221 5.40515L22.6358 5.98639L23.4496 6.56763C23.8203 6.0486 24 5.45274 24 4.81594H23ZM22.6358 5.98639L21.8204 5.40747C21.6817 5.6029 21.5242 5.72481 21.3405 5.80067L21.7222 6.72494L22.1039 7.64922C22.6546 7.42182 23.1061 7.05136 23.4512 6.56531L22.6358 5.98639ZM21.7222 6.72494H20.7222V20.9364H21.7222H22.7222V6.72494H21.7222ZM21.7222 20.9364H20.7222C20.7222 21.2431 20.6257 21.4756 20.4113 21.6905L21.1191 22.3969L21.827 23.1032C22.4167 22.5123 22.7222 21.7712 22.7222 20.9364H21.7222ZM21.1191 22.3969L20.412 21.6898C20.1986 21.9032 19.9665 22 19.6586 22V23V24C20.4939 24 21.2355 23.6947 21.8262 23.104L21.1191 22.3969ZM19.6586 23V22H3.34267V23V24H19.6586V23ZM2.55556 6.88083H1.55556V20.8137H2.55556H3.55556V6.88083H2.55556ZM2.55556 20.8137H1.55556C1.55556 21.348 1.76185 21.8353 2.16328 22.2022L2.83794 21.4641L3.51261 20.726C3.5123 20.7257 3.51687 20.7299 3.52356 20.7391C3.53037 20.7485 3.53744 20.7604 3.54342 20.7742C3.55648 20.8043 3.55556 20.8221 3.55556 20.8137H2.55556ZM2.83794 21.4641L2.16328 22.2022C2.55409 22.5594 3.03621 22.7222 3.53944 22.7222V21.7222V20.7222C3.52095 20.7222 3.50944 20.7208 3.50376 20.7199C3.49825 20.7189 3.49738 20.7183 3.49982 20.7192C3.50237 20.7201 3.50588 20.7218 3.50938 20.7239C3.51283 20.726 3.51394 20.7272 3.51261 20.726L2.83794 21.4641ZM3.53944 21.7222V22.7222H19.6599V21.7222V20.7222H3.53944V21.7222ZM19.6599 21.7222V22.7222C20.1253 22.7222 20.5773 22.5627 20.9318 22.2083L20.2247 21.5012L19.5176 20.7941C19.5383 20.7733 19.5701 20.7507 19.6085 20.7357C19.6449 20.7215 19.6663 20.7222 19.6599 20.7222V21.7222ZM20.2247 21.5012L20.9318 22.2083C21.2862 21.8538 21.4457 21.4018 21.4457 20.9364H20.4457H19.4457C19.4457 20.9428 19.445 20.9214 19.4592 20.885C19.4742 20.8466 19.4968 20.8148 19.5176 20.7941L20.2247 21.5012ZM20.4457 20.9364H21.4457V6.88083H20.4457H19.4457V20.9364H20.4457ZM20.4457 6.88083V5.88083H2.55556V6.88083V7.88083H20.4457V6.88083ZM2.06361 5.60306V6.60306H20.9364V5.60306V4.60306H2.06361V5.60306ZM20.9364 5.60306V6.60306C21.4018 6.60306 21.8538 6.44356 22.2083 6.08911L21.5012 5.382L20.7941 4.67489C20.8148 4.65414 20.8466 4.63158 20.885 4.61658C20.9214 4.60231 20.9428 4.60306 20.9364 4.60306V5.60306ZM21.5012 5.382L22.2083 6.08911C22.5635 5.7339 22.7222 5.28101 22.7222 4.81594H21.7222H20.7222C20.7222 4.8232 20.7213 4.8024 20.7355 4.76619C20.7504 4.72806 20.7729 4.69603 20.7941 4.67489L21.5012 5.382ZM21.7222 4.81594H22.7222V2.06489H21.7222H20.7222V4.81594H21.7222ZM21.7222 2.06489H22.7222C22.7222 1.59982 22.5635 1.14693 22.2083 0.791726L21.5012 1.49883L20.7941 2.20594C20.7729 2.1848 20.7504 2.15278 20.7355 2.11464C20.7213 2.07843 20.7222 2.05763 20.7222 2.06489H21.7222ZM21.5012 1.49883L22.2083 0.791726C21.8531 0.436524 21.4002 0.277778 20.9351 0.277778V1.27778V2.27778C20.9424 2.27778 20.9216 2.27867 20.8854 2.26453C20.8472 2.24964 20.8152 2.22707 20.7941 2.20594L21.5012 1.49883ZM20.9351 1.27778V0.277778H2.06489V1.27778V2.27778H20.9351V1.27778ZM2.06489 1.27778V0.277778C1.59983 0.277778 1.14693 0.436522 0.791726 0.791726L1.49883 1.49883L2.20594 2.20594C2.1848 2.22708 2.15278 2.24964 2.11464 2.26453C2.07843 2.27867 2.05763 2.27778 2.06489 2.27778V1.27778ZM1.49883 1.49883L0.791726 0.791726C0.436522 1.14693 0.277778 1.59983 0.277778 2.06489H1.27778H2.27778C2.27778 2.05763 2.27867 2.07843 2.26453 2.11464C2.24964 2.15278 2.22708 2.1848 2.20594 2.20594L1.49883 1.49883ZM1.27778 2.06489H0.277778V4.81594H1.27778H2.27778V2.06489H1.27778ZM1.27778 4.81594H0.277778C0.277778 5.28096 0.436583 5.73474 0.793779 6.08988L1.49883 5.38072L2.20389 4.67157C2.22589 4.69344 2.24904 4.72628 2.26425 4.76516C2.27869 4.80203 2.27778 4.82325 2.27778 4.81594H1.27778ZM1.49883 5.38072L0.791726 6.08783C1.14693 6.44303 1.59983 6.60178 2.06489 6.60178V5.60178V4.60178C2.05763 4.60178 2.07843 4.60088 2.11464 4.61502C2.15278 4.62992 2.1848 4.65248 2.20594 4.67362L1.49883 5.38072ZM8.15861 12.6066V13.6066H14.8414V12.6066V11.6066H8.15861V12.6066ZM14.8414 12.6066H15.8414V11.5H14.8414H13.8414V12.6066H14.8414ZM14.8414 11.5V10.5H8.15861V11.5V12.5H14.8414V11.5ZM8.15861 11.5H7.15861V12.6066H8.15861H9.15861V11.5H8.15861Z" fill="#8A8A8A" mask="url(#path-1-inside-1_685_17)"/>
</svg>
