<svg width="172" height="172" viewBox="0 0 172 172" fill="none" xmlns="http://www.w3.org/2000/svg">
<circle cx="86" cy="86" r="86" fill="#006599"/>
<circle cx="86.0033" cy="85.9989" r="73.0189" fill="white"/>
<path d="M53.2833 48.376H41.2394C39.4413 48.376 38.0421 49.9518 38.2869 51.7331C39.8992 63.4651 42.3298 69.9065 52.7451 75.2149C53.0723 75.3816 53.292 75.7222 53.3071 76.0891C54.3555 101.665 60.2528 111.222 78.2152 120.543C78.5438 120.713 78.759 121.057 78.767 121.427C78.9115 128.045 79.8305 131.327 81.9334 133.991C83.2304 135.634 85.601 135.837 87.3866 134.745C92.4318 131.657 95.1388 128.818 98.4042 123.731C98.5427 123.515 98.7636 123.357 99.0121 123.293C119.805 118.005 130.895 108.806 133.677 88.6124C134.437 83.0976 129.829 78.5227 124.262 78.5227H75.0822C74.5299 78.5227 74.0822 78.075 74.0822 77.5227V76.0704C74.0822 75.7086 74.283 75.3728 74.5969 75.1931C85.352 69.0395 88.5924 63.2182 89.1787 51.4221C89.2618 49.7507 87.9031 48.376 86.2297 48.376H73.3811C68.8604 48.8904 67.0975 49.8313 64.5258 52.1476C64.1196 52.5136 63.4965 52.4963 63.0965 52.1235C60.3485 49.5622 57.6738 48.8011 53.2833 48.376Z" fill="#006599" stroke="#006599"/>
<path fill-rule="evenodd" clip-rule="evenodd" d="M46.2695 55.1517C48.3106 63.3162 51.1066 66.7951 59.8269 69.8674C60.2398 70.0129 60.5174 70.4152 60.5083 70.8528C60.0231 94.1908 63.4788 104.262 79.9217 113.108C80.5329 110.187 81.3543 108.261 82.9284 105.723C83.7939 104.328 85.4414 103.201 86.9423 103.867C86.9696 103.879 86.9966 103.892 87.0233 103.904C88.3697 104.555 88.2039 106.42 87.6176 107.795C84.2077 115.795 83.3717 120.854 85.7641 129.233C93.5747 122.27 97.1041 117.249 99.915 106.719C100.296 105.293 101.257 104.094 102.551 103.384C108.246 100.261 110.93 97.3471 113.496 92.1487C114.167 90.7889 115.396 89.5243 116.882 89.8267C117.218 89.8951 117.519 90.0064 117.79 90.1531C118.941 90.7779 118.993 92.3217 118.569 93.5607C116.007 101.04 112.392 103.779 105.953 107.766C105.745 107.895 105.589 108.096 105.518 108.329L103.291 115.679C119.335 109.942 124.506 103.33 127.61 87.1761C127.727 86.5656 127.262 85.9968 126.64 85.9939C119.16 85.9581 78.7855 85.7659 74.5467 85.7659C69.956 85.7659 65.9877 80.9166 67.6723 71.1137C67.7296 70.7803 67.9613 70.4978 68.2728 70.3658C76.2373 66.9907 79.5576 62.9603 81.7913 55.1517C73.748 54.1087 69.7041 55.0362 64.7487 60.8296C64.3604 61.2836 63.661 61.3186 63.2334 60.9013C57.1829 54.9957 53.2817 54.0872 46.2695 55.1517Z" fill="white" stroke="white"/>
<path d="M104.224 74.7824C94.1944 66.8477 111.316 64.3184 99.784 57.0215C108.571 64.0228 90.8457 66.6479 104.224 74.7824Z" fill="#006599"/>
<path d="M115.715 52.3272C109.088 59.8527 123.242 68.07 107.961 74.7842C118.37 67.0883 106.829 62.2433 115.715 52.3272C115.777 52.2567 115.841 52.1862 115.907 52.1157C115.842 52.1865 115.778 52.257 115.715 52.3272Z" fill="#006599"/>
<path d="M105.161 69.8747C119.884 58.891 98.8512 57.2552 104.226 46.2715C97.2153 57.9563 113.808 55.1519 105.161 69.8747Z" fill="#006599"/>
<circle cx="104.697" cy="91.8428" r="3.50543" fill="#006599"/>
<ellipse cx="103.996" cy="90.6764" rx="2.80435" ry="2.80435" fill="white"/>
</svg>
