<svg width="27" height="27" viewBox="0 0 27 27" fill="none" xmlns="http://www.w3.org/2000/svg">
<path d="M21.1667 17.3333L25 13.5M25 13.5L21.1667 9.66667M25 13.5H7.11111M16.0556 18.6111V21.9333C16.0556 22.3361 15.9762 22.7348 15.8221 23.1069C15.668 23.479 15.4421 23.817 15.1573 24.1018C14.8726 24.3866 14.5345 24.6124 14.1625 24.7666C13.7904 24.9207 13.3916 25 12.9889 25H5.06667C4.25334 25 3.47332 24.6769 2.89821 24.1018C2.32309 23.5267 2 22.7467 2 21.9333V5.06667C2 4.66395 2.07932 4.26517 2.23344 3.8931C2.38755 3.52104 2.61344 3.18297 2.89821 2.89821C3.47332 2.32309 4.25334 2 5.06667 2H12.9889C13.3916 2 13.7904 2.07932 14.1625 2.23344C14.5345 2.38755 14.8726 2.61344 15.1573 2.89821C15.4421 3.18297 15.668 3.52104 15.8221 3.8931C15.9762 4.26517 16.0556 4.66395 16.0556 5.06667V8.38889" stroke="#2563EB" stroke-width="4" stroke-miterlimit="10" stroke-linecap="round" stroke-linejoin="round"/>
</svg>
