<svg width="23" height="28" viewBox="0 0 23 28" fill="none" xmlns="http://www.w3.org/2000/svg">
<path d="M16.5802 17.6992C16.5791 17.909 16.4944 18.1098 16.3445 18.2583C16.1945 18.4068 15.9913 18.491 15.7789 18.4925H7.22109C7.00806 18.4925 6.80376 18.4089 6.65313 18.2601C6.5025 18.1114 6.41787 17.9096 6.41787 17.6992C6.41787 17.4888 6.5025 17.2871 6.65313 17.1383C6.80376 16.9895 7.00806 16.906 7.22109 16.906H15.7789C15.9916 16.907 16.1953 16.9909 16.3457 17.1394C16.4961 17.288 16.5811 17.4892 16.5821 17.6992M15.7809 12.681H7.22109C7.0152 12.6911 6.82111 12.779 6.679 12.9265C6.53688 13.074 6.45763 13.2697 6.45763 13.4733C6.45763 13.6769 6.53688 13.8727 6.679 14.0202C6.82111 14.1677 7.0152 14.2556 7.22109 14.2656H15.7789C15.9848 14.2556 16.1789 14.1677 16.321 14.0202C16.4631 13.8727 16.5424 13.6769 16.5424 13.4733C16.5424 13.2697 16.4631 13.074 16.321 12.9265C16.1789 12.779 15.9868 12.6911 15.7809 12.681ZM23 3.96486V26.151C23.0003 26.3937 22.9521 26.6341 22.8582 26.8584C22.7643 27.0828 22.6266 27.2866 22.4529 27.4583C22.2792 27.63 22.073 27.7663 21.8459 27.8592C21.6189 27.9522 21.3755 28 21.1298 28H1.87024C1.37422 28 0.898519 27.8054 0.547781 27.459C0.197043 27.1126 1.03624e-06 26.6428 1.03624e-06 26.1529V3.96291C-0.000257668 3.72019 0.0479265 3.47979 0.141799 3.25547C0.235671 3.03115 0.373391 2.8273 0.547085 2.65558C0.720778 2.48386 0.927039 2.34763 1.15408 2.25469C1.38111 2.16174 1.62447 2.1139 1.87024 2.1139H6.84114C7.4174 1.45083 8.13199 0.918633 8.93595 0.553769C9.73991 0.188904 10.6142 0 11.499 0C12.3838 0 13.2581 0.188904 14.0621 0.553769C14.866 0.918633 15.5806 1.45083 16.1569 2.1139H21.1258C21.3716 2.11365 21.615 2.16124 21.8421 2.25394C22.0693 2.34665 22.2757 2.48267 22.4496 2.65421C22.6234 2.82575 22.7614 3.02945 22.8555 3.25368C22.9496 3.4779 22.998 3.71824 22.998 3.96097M6.95335 6.0744V6.33687H16.0447V6.0744C16.0573 5.47686 15.949 4.88285 15.7261 4.32717C15.5033 3.7715 15.1704 3.26534 14.747 2.83835C14.3235 2.41136 13.8181 2.07214 13.2602 1.84055C12.7023 1.60896 12.1032 1.48967 11.498 1.48967C10.8929 1.48967 10.2938 1.60896 9.7359 1.84055C9.17801 2.07214 8.67253 2.41136 8.24909 2.83835C7.82565 3.26534 7.49276 3.7715 7.26992 4.32717C7.04709 4.88285 6.94076 5.47686 6.95335 6.0744ZM21.3916 3.96097C21.3916 3.92624 21.3847 3.89186 21.3712 3.85978C21.3578 3.8277 21.338 3.79855 21.3132 3.77399C21.2883 3.74944 21.2588 3.72996 21.2263 3.71667C21.1938 3.70338 21.159 3.69654 21.1239 3.69654H17.157C17.4818 4.44704 17.6491 5.25586 17.6491 6.0744V7.13014C17.6481 7.34021 17.5632 7.54139 17.4127 7.68993C17.2623 7.83848 17.0586 7.92238 16.8459 7.9234H6.1521C5.93939 7.92238 5.73569 7.83848 5.58528 7.68993C5.43488 7.54139 5.34992 7.34021 5.34888 7.13014V6.0744C5.34888 5.2578 5.51622 4.44704 5.84105 3.69654H1.87024C1.83508 3.69654 1.80026 3.70338 1.76778 3.71667C1.7353 3.72996 1.70578 3.74944 1.68092 3.77399C1.65606 3.79855 1.63634 3.8277 1.62288 3.85978C1.60943 3.89186 1.6025 3.92624 1.6025 3.96097V26.1471C1.6025 26.2172 1.63071 26.2845 1.68092 26.3341C1.73113 26.3837 1.79923 26.4115 1.87024 26.4115H21.1258C21.1968 26.4115 21.2649 26.3837 21.3151 26.3341C21.3654 26.2845 21.3936 26.2172 21.3936 26.1471L21.3916 3.96097Z" fill="#8A8A94"/>
</svg>
